<svg id="visual" viewBox="0 0 900 600" width="900" height="600" xmlns="http://www.w3.org/2000/svg" xmlns:xlink="http://www.w3.org/1999/xlink" version="1.1"><path d="M0 175L16.7 180C33.3 185 66.7 195 100 200C133.3 205 166.7 205 200 199C233.3 193 266.7 181 300 188C333.3 195 366.7 221 400 233C433.3 245 466.7 243 500 236C533.3 229 566.7 217 600 205C633.3 193 666.7 181 700 182C733.3 183 766.7 197 800 196C833.3 195 866.7 179 883.3 171L900 163L900 0L883.3 0C866.7 0 833.3 0 800 0C766.7 0 733.3 0 700 0C666.7 0 633.3 0 600 0C566.7 0 533.3 0 500 0C466.7 0 433.3 0 400 0C366.7 0 333.3 0 300 0C266.7 0 233.3 0 200 0C166.7 0 133.3 0 100 0C66.7 0 33.3 0 16.7 0L0 0Z" fill="#2a3649"></path><path d="M0 373L16.7 370C33.3 367 66.7 361 100 358C133.3 355 166.7 355 200 358C233.3 361 266.7 367 300 377C333.3 387 366.7 401 400 405C433.3 409 466.7 403 500 397C533.3 391 566.7 385 600 385C633.3 385 666.7 391 700 395C733.3 399 766.7 401 800 398C833.3 395 866.7 387 883.3 383L900 379L900 161L883.3 169C866.7 177 833.3 193 800 194C766.7 195 733.3 181 700 180C666.7 179 633.3 191 600 203C566.7 215 533.3 227 500 234C466.7 241 433.3 243 400 231C366.7 219 333.3 193 300 186C266.7 179 233.3 191 200 197C166.7 203 133.3 203 100 198C66.7 193 33.3 183 16.7 178L0 173Z" fill="#19202c"></path><path d="M0 451L16.7 453C33.3 455 66.7 459 100 462C133.3 465 166.7 467 200 470C233.3 473 266.7 477 300 481C333.3 485 366.7 489 400 489C433.3 489 466.7 485 500 482C533.3 479 566.7 477 600 479C633.3 481 666.7 487 700 488C733.3 489 766.7 485 800 481C833.3 477 866.7 473 883.3 471L900 469L900 377L883.3 381C866.7 385 833.3 393 800 396C766.7 399 733.3 397 700 393C666.7 389 633.3 383 600 383C566.7 383 533.3 389 500 395C466.7 401 433.3 407 400 403C366.7 399 333.3 385 300 375C266.7 365 233.3 359 200 356C166.7 353 133.3 353 100 356C66.7 359 33.3 365 16.7 368L0 371Z" fill="#0f141c"></path><path d="M0 601L16.7 601C33.3 601 66.7 601 100 601C133.3 601 166.7 601 200 601C233.3 601 266.7 601 300 601C333.3 601 366.7 601 400 601C433.3 601 466.7 601 500 601C533.3 601 566.7 601 600 601C633.3 601 666.7 601 700 601C733.3 601 766.7 601 800 601C833.3 601 866.7 601 883.3 601L900 601L900 467L883.3 469C866.7 471 833.3 475 800 479C766.7 483 733.3 487 700 486C666.7 485 633.3 479 600 477C566.7 475 533.3 477 500 480C466.7 483 433.3 487 400 487C366.7 487 333.3 483 300 479C266.7 475 233.3 471 200 468C166.7 465 133.3 463 100 460C66.7 457 33.3 453 16.7 451L0 449Z" fill="#0d1118"></path></svg>